<mxfile host="app.diagrams.net" modified="2024-03-27T17:47:03.333Z" agent="Mozilla/5.0 (Windows NT 10.0; Win64; x64) AppleWebKit/537.36 (KHTML, like Gecko) Chrome/123.0.0.0 Safari/537.36" version="24.0.0" etag="5NjAQY-9k3d2MLhxiUiu" type="github">
  <diagram name="Page-1" id="5KwRpMXf4NVJ-2YC-cUE">
    <mxGraphModel>
      <root>
        <mxCell id="0" />
        <mxCell id="1" parent="0" />
      </root>
    </mxGraphModel>
  </diagram>
</mxfile>
